<mxfile host="app.diagrams.net" agent="Mozilla/5.0 (Windows NT 10.0; Win64; x64) AppleWebKit/537.36 (KHTML, like Gecko) Chrome/128.0.0.0 Safari/537.36" version="24.7.14">
  <diagram name="Page-1" id="hD7l8Sol0qxSJKEBowCr">
    <mxGraphModel dx="797" dy="433" grid="1" gridSize="10" guides="1" tooltips="1" connect="1" arrows="1" fold="1" page="1" pageScale="1" pageWidth="850" pageHeight="1100" math="0" shadow="0">
      <root>
        <mxCell id="0" />
        <mxCell id="1" parent="0" />
        <mxCell id="AAQwpPlhhhtaNyk8HruS-12" value="" style="edgeStyle=orthogonalEdgeStyle;rounded=0;orthogonalLoop=1;jettySize=auto;html=1;entryX=0.5;entryY=0;entryDx=0;entryDy=0;" edge="1" parent="1" source="AAQwpPlhhhtaNyk8HruS-1" target="AAQwpPlhhhtaNyk8HruS-4">
          <mxGeometry relative="1" as="geometry">
            <mxPoint x="425" y="145" as="targetPoint" />
          </mxGeometry>
        </mxCell>
        <mxCell id="AAQwpPlhhhtaNyk8HruS-16" style="edgeStyle=orthogonalEdgeStyle;rounded=0;orthogonalLoop=1;jettySize=auto;html=1;exitX=0.5;exitY=1;exitDx=0;exitDy=0;" edge="1" parent="1" source="AAQwpPlhhhtaNyk8HruS-1" target="AAQwpPlhhhtaNyk8HruS-5">
          <mxGeometry relative="1" as="geometry" />
        </mxCell>
        <mxCell id="AAQwpPlhhhtaNyk8HruS-1" value="&lt;p style=&quot;line-height: 60%;&quot;&gt;&lt;font style=&quot;font-size: 16px;&quot;&gt;What Technologies using for Face Analyzing&amp;nbsp;&lt;/font&gt;&lt;/p&gt;" style="rounded=0;whiteSpace=wrap;html=1;" vertex="1" parent="1">
          <mxGeometry x="250" y="20" width="350" height="50" as="geometry" />
        </mxCell>
        <mxCell id="AAQwpPlhhhtaNyk8HruS-4" value="Front-end" style="rounded=0;whiteSpace=wrap;html=1;" vertex="1" parent="1">
          <mxGeometry x="240" y="140" width="79" height="20" as="geometry" />
        </mxCell>
        <mxCell id="AAQwpPlhhhtaNyk8HruS-5" value="Backend" style="rounded=0;whiteSpace=wrap;html=1;" vertex="1" parent="1">
          <mxGeometry x="510" y="140" width="80" height="22" as="geometry" />
        </mxCell>
      </root>
    </mxGraphModel>
  </diagram>
</mxfile>
